<svg xmlns="http://www.w3.org/2000/svg" viewBox="0 -0.5 17 17" shape-rendering="crispEdges">
<path stroke="#ebece7" d="M0 0h17M16 1h1M16 15h1M16 16h1" />
<path stroke="#fcfcfb" d="M0 1h1" />
<path stroke="#ffffff" d="M1 1h15M0 2h1M15 2h1M0 3h1M15 3h1M0 4h1M15 4h1M0 5h1M15 5h1M0 6h1M15 6h1M0 7h1M15 7h1M0 8h1M15 8h1M0 9h1M15 9h1M0 10h1M15 10h1M0 11h1M15 11h1M0 12h1M15 12h1M0 13h1M15 13h1M0 14h1M15 14h1M1 15h14" />
<path stroke="#f4f7eb" d="M1 2h1" />
<path stroke="#ecf1db" d="M2 2h1M1 3h1" />
<path stroke="#e8edd6" d="M3 2h1M1 4h1" />
<path stroke="#e4ead1" d="M4 2h1" />
<path stroke="#e3e9ce" d="M5 2h1" />
<path stroke="#e2e9cc" d="M6 2h1M1 7h1" />
<path stroke="#e0e6ca" d="M7 2h2" />
<path stroke="#dfe7c7" d="M9 2h1M1 8h1" />
<path stroke="#dee6c6" d="M10 2h1M1 9h1" />
<path stroke="#dfe6c6" d="M11 2h1" />
<path stroke="#dde4c3" d="M12 2h1" />
<path stroke="#dbe3c0" d="M13 2h1" />
<path stroke="#eef2e3" d="M14 2h1" />
<path stroke="#dfe2e1" d="M16 2h1" />
<path stroke="#f3f7e8" d="M2 3h1" />
<path stroke="#f1f5e3" d="M3 3h1M2 4h1" />
<path stroke="#edf2de" d="M4 3h1M2 5h1" />
<path stroke="#edf2dc" d="M5 3h1M3 5h1" />
<path stroke="#ecf1db" d="M6 3h1M2 6h1" />
<path stroke="#ecf1da" d="M7 3h1M5 4h1" />
<path stroke="#ebf0d9" d="M8 3h1M4 5h1M2 7h1" />
<path stroke="#eaf0d7" d="M9 3h1M6 4h1M4 6h1" />
<path stroke="#e8eed5" d="M10 3h1" />
<path stroke="#e8eed3" d="M11 3h1M3 10h3" />
<path stroke="#e7eed0" d="M12 3h1M11 4h1M2 10h1M3 11h1" />
<path stroke="#e3ebcc" d="M13 3h1M13 5h1M4 13h2" />
<path stroke="#dee4c7" d="M14 3h1M4 14h3" />
<path stroke="#d8dad2" d="M16 3h1" />
<path stroke="#eff3e1" d="M3 4h1" />
<path stroke="#edf2dc" d="M4 4h1" />
<path stroke="#e9efd6" d="M7 4h1M5 5h2M4 7h1M2 8h1" />
<path stroke="#70775b" d="M8 4h1M7 5h3M6 6h3M5 7h3M4 8h3M5 9h3M6 10h3M7 11h3M8 12h1" />
<path stroke="#e8eed3" d="M9 4h1" />
<path stroke="#e8eed3" d="M10 4h1" />
<path stroke="#e5ecce" d="M12 4h1M2 11h1M3 12h1" />
<path stroke="#e3ebcc" d="M13 4h1" />
<path stroke="#dfe6c8" d="M14 4h1" />
<path stroke="#cfd3c4" d="M16 4h1" />
<path stroke="#e4ead1" d="M1 5h1" />
<path stroke="#e5eccc" d="M10 5h3M9 6h1" />
<path stroke="#dfe5ca" d="M14 5h1M14 6h1M14 7h1" />
<path stroke="#c8ccba" d="M16 5h1" />
<path stroke="#e3eacc" d="M1 6h1" />
<path stroke="#ecf1da" d="M3 6h1" />
<path stroke="#e8eed5" d="M5 6h1M2 9h3" />
<path stroke="#e4eccb" d="M10 6h1M12 6h2M2 12h1" />
<path stroke="#e3eaca" d="M11 6h1M8 7h3M12 7h2M13 8h1" />
<path stroke="#c4c9b3" d="M16 6h1" />
<path stroke="#ebf0d9" d="M3 7h1" />
<path stroke="#e3ebc8" d="M11 7h1M12 8h1" />
<path stroke="#c2c7b0" d="M16 7h1" />
<path stroke="#eaf0d7" d="M3 8h1" />
<path stroke="#e6ecd0" d="M7 8h2" />
<path stroke="#e2eac7" d="M9 8h3M9 9h4" />
<path stroke="#dfe6c8" d="M14 8h1" />
<path stroke="#c0c6ad" d="M16 8h1M16 9h1M16 13h1" />
<path stroke="#e4eccc" d="M8 9h1M7 12h1" />
<path stroke="#e2eac7" d="M13 9h1M9 13h1" />
<path stroke="#dee4c7" d="M14 9h1" />
<path stroke="#dde5c2" d="M1 10h1" />
<path stroke="#e4eccb" d="M9 10h1" />
<path stroke="#e0e9c4" d="M10 10h3M11 12h1" />
<path stroke="#dfe8c3" d="M13 10h1" />
<path stroke="#dde4c3" d="M14 10h1M9 14h2" />
<path stroke="#bfc5ac" d="M16 10h1M16 11h1M16 12h1" />
<path stroke="#dbe4bf" d="M1 11h1" />
<path stroke="#e8eed2" d="M4 11h1" />
<path stroke="#e7eed0" d="M5 11h2" />
<path stroke="#e3ebc8" d="M10 11h1M9 12h1" />
<path stroke="#e1eac5" d="M11 11h1" />
<path stroke="#dfe8c2" d="M12 11h1" />
<path stroke="#dee7c1" d="M13 11h1" />
<path stroke="#dbe2c2" d="M14 11h1" />
<path stroke="#dae3be" d="M1 12h1" />
<path stroke="#e6ecd0" d="M4 12h1" />
<path stroke="#e5ecce" d="M5 12h2" />
<path stroke="#e2eac7" d="M10 12h1" />
<path stroke="#dfe8c2" d="M12 12h1" />
<path stroke="#dde6c0" d="M13 12h1M12 13h1" />
<path stroke="#dbe2c2" d="M14 12h1" />
<path stroke="#d8e1bc" d="M1 13h1" />
<path stroke="#e1e8c8" d="M2 13h1" />
<path stroke="#e3eaca" d="M3 13h1" />
<path stroke="#e2e9cb" d="M6 13h1" />
<path stroke="#e3eaca" d="M7 13h1" />
<path stroke="#e2eac8" d="M8 13h1" />
<path stroke="#e0e9c4" d="M10 13h1" />
<path stroke="#dee7c2" d="M11 13h1" />
<path stroke="#dce5c0" d="M13 13h1" />
<path stroke="#dae1c1" d="M14 13h1" />
<path stroke="#edf1e2" d="M1 14h1" />
<path stroke="#dce2c5" d="M2 14h1" />
<path stroke="#dde3c6" d="M3 14h1M7 14h2" />
<path stroke="#dce3c2" d="M11 14h1" />
<path stroke="#dbe2c2" d="M12 14h1" />
<path stroke="#dae1c1" d="M13 14h1" />
<path stroke="#ebefe0" d="M14 14h1" />
<path stroke="#c7ccb8" d="M16 14h1" />
<path stroke="#dadecc" d="M0 15h1" />
<path stroke="#d1d7bc" d="M15 15h1" />
<path stroke="#f1f2ee" d="M0 16h1" />
<path stroke="#cdd3b8" d="M1 16h1" />
<path stroke="#c0c8a5" d="M2 16h1" />
<path stroke="#bbc49c" d="M3 16h1" />
<path stroke="#b6bf97" d="M4 16h1" />
<path stroke="#b4be93" d="M5 16h1M10 16h3" />
<path stroke="#b3bd93" d="M6 16h1" />
<path stroke="#b3bd92" d="M7 16h3" />
<path stroke="#b7c197" d="M13 16h1" />
<path stroke="#c2cba6" d="M14 16h1" />
<path stroke="#f3f4ef" d="M15 16h1" />
</svg>